<svg id="Capa_1" data-name="Capa 1" xmlns="http://www.w3.org/2000/svg" viewBox="0 0 3148.7 1343.44"><defs><style>.cls-1{fill:#d25254;}.cls-2{fill:#e2c159;}.cls-3{fill:#f9f1e4;}</style></defs><path class="cls-1" d="M2755.14,773.27V826a65.62,65.62,0,0,1-65.59,65.6H2334.47V773.53h-27.12V721.05h158.3v13.12A39.42,39.42,0,0,0,2505,773.53H2728.9Z"/><rect class="cls-1" x="2518.13" y="443.81" width="26.24" height="329.72"/><rect class="cls-2" x="2531.25" y="443.81" width="65.59" height="79.59"/><rect class="cls-2" x="2464.78" y="443.81" width="66.47" height="79.59"/><rect class="cls-2" x="2531.25" y="548.76" width="170.98" height="133.29"/><rect class="cls-2" x="2360.27" y="548.76" width="170.98" height="133.29"/><rect class="cls-1" x="2728.9" y="707.93" width="26.24" height="65.59"/><path class="cls-3" d="M376.39,689.7c0-120.84,75.24-213.19,195.51-213.19,100.32,0,159.61,59.86,168.16,137.38H658c-7.41-41-38.19-67.83-86.07-67.83-75.24,0-111.15,62.7-111.15,143.64,0,83.22,43.32,143.07,111.72,143.07,48.45,0,82.65-29.07,87.78-71.82h81a144.32,144.32,0,0,1-45,96.33c-27.94,26.22-67.27,43.32-123.7,43.32C457.9,900.6,376.39,812.25,376.39,689.7Z"/><path class="cls-3" d="M767.81,484.49h77.52V892.05H767.81Z"/><path class="cls-3" d="M892.62,484.49h77.52V554H892.62Zm0,115.15h77.52V892.05H892.62Z"/><path class="cls-3" d="M1020.3,599.64H1095v36.48h1.71c18.81-25.65,46.17-44.46,86.08-44.46,77.52,0,127.11,63.27,127.11,154.47,0,94.62-51.3,154.47-126.54,154.47-41,0-67.84-16.53-84.37-41.61h-1.14V987.81H1020.3Zm210.91,148.77c0-55.29-19.38-94-67.26-94-48.46,0-67.84,41.61-67.84,94,0,53,24.51,87.78,70.69,87.78C1206.13,836.19,1231.21,803.7,1231.21,748.41Z"/><path class="cls-3" d="M1340.77,599.64h74.67v36.48h1.71c18.81-25.65,46.17-44.46,86.08-44.46,77.52,0,127.11,63.27,127.11,154.47,0,94.62-51.3,154.47-126.55,154.47-41,0-67.83-16.53-84.36-41.61h-1.14V987.81h-77.52Zm210.91,148.77c0-55.29-19.38-94-67.27-94-48.45,0-67.83,41.61-67.83,94,0,53,24.51,87.78,70.68,87.78C1526.6,836.19,1551.68,803.7,1551.68,748.41Z"/><path class="cls-3" d="M1657,745.56c0-86.64,58.71-153.9,144.21-153.9,94.06,0,144.22,71.82,144.22,176.13H1733.37c5.7,45,30.78,73,74.67,73,30.21,0,47.88-13.68,56.43-35.91h76.39c-10.83,51.87-57,95.76-132.25,95.76C1711.71,900.6,1657,832.77,1657,745.56Zm77.52-31.35h130c-2.28-37.05-26.79-62.7-62.13-62.7C1761.3,651.51,1741.35,676,1734.51,714.21Z"/><path class="cls-3" d="M2053,646.38h1.71c17.67-33.06,37.62-50.16,71.82-50.16,8.55,0,13.68.57,18.24,2.28v67.83h-1.71c-50.73-5.13-87.21,21.66-87.21,83.22v142.5h-77.52V599.64H2053Z"/></svg>