<svg preserveAspectRatio="xMidYMid meet" data-bbox="0 0 220.424 90.33" viewBox="0 0 220.424 90.33" xmlns="http://www.w3.org/2000/svg" data-type="color" role="presentation" aria-hidden="true">
    <g>
        <g>
            <path d="M47.82 37.19V0H26.57a26.57 26.57 0 0 0 0 53.14h5.31v-16z" fill="#ffffff" data-color="1"></path>
            <path d="M53.14 37.19h-5.32v16H31.88v37.14h21.26a26.57 26.57 0 0 0 0-53.14z" fill="#ffffff" data-color="1"></path>
            <path d="M110.26 68.07a15.31 15.31 0 0 1-6.55-5.17 13.18 13.18 0 0 1-2.39-7.83h9.09a8.2 8.2 0 0 0 2.65 5.52 9.36 9.36 0 0 0 6.59 2.16 10.15 10.15 0 0 0 6.86-2.13 6.88 6.88 0 0 0 2.49-5.47 6 6 0 0 0-1.52-4.25 10.23 10.23 0 0 0-3.8-2.53 55.82 55.82 0 0 0-6.3-1.94 59.42 59.42 0 0 1-8.23-2.72 13.61 13.61 0 0 1-5.4-4.29 12.34 12.34 0 0 1-2.24-7.74 13.81 13.81 0 0 1 2.24-7.83 14.28 14.28 0 0 1 6.25-5.14 22.82 22.82 0 0 1 9.32-1.79c5 0 9.13 1.26 12.33 3.77A13.88 13.88 0 0 1 136.94 31h-9.39a6.81 6.81 0 0 0-2.68-4.85 9.93 9.93 0 0 0-6.49-2 9.21 9.21 0 0 0-6 1.86 6.5 6.5 0 0 0-2.31 5.37 5.44 5.44 0 0 0 1.46 3.91 10.14 10.14 0 0 0 3.68 2.42 58.3 58.3 0 0 0 6.11 1.94 63.79 63.79 0 0 1 8.39 2.83 14 14 0 0 1 5.51 4.36 12.49 12.49 0 0 1 2.27 7.86 14.08 14.08 0 0 1-2.12 7.45 15.38 15.38 0 0 1-6.18 5.63 20.48 20.48 0 0 1-9.58 2.12 23.14 23.14 0 0 1-9.35-1.83z" fill="#ffffff" data-color="1"></path>
            <path d="M145.8 21.32a5.28 5.28 0 0 1-1.56-3.88 5.33 5.33 0 0 1 5.44-5.44 5.19 5.19 0 0 1 3.8 1.56 5.27 5.27 0 0 1 1.52 3.88 5.28 5.28 0 0 1-1.56 3.88 5.19 5.19 0 0 1-3.8 1.56 5.29 5.29 0 0 1-3.84-1.56zm8 7v41.06h-8.49V28.32z" fill="#ffffff" data-color="1"></path>
            <path d="M171.62 14.24v55.14h-8.49V14.24z" fill="#ffffff" data-color="1"></path>
            <path d="M188.6 67.4a19 19 0 0 1-7.38-7.4 22.53 22.53 0 0 1-2.68-11.14 22 22 0 0 1 2.76-11.1 19 19 0 0 1 7.52-7.45 23.05 23.05 0 0 1 21.31 0 19.06 19.06 0 0 1 7.53 7.45 22 22 0 0 1 2.76 11.1 21.52 21.52 0 0 1-2.84 11.1 19.48 19.48 0 0 1-7.71 7.49 22.13 22.13 0 0 1-10.76 2.65 21 21 0 0 1-10.51-2.7zm16.65-6.29a12 12 0 0 0 4.66-4.7 15.1 15.1 0 0 0 1.79-7.6 15.31 15.31 0 0 0-1.7-7.56 11.59 11.59 0 0 0-4.54-4.66 12.48 12.48 0 0 0-6.13-1.59 12.22 12.22 0 0 0-6.07 1.56 11.24 11.24 0 0 0-4.44 4.66 16 16 0 0 0-1.64 7.56q0 6.63 3.39 10.25a11.21 11.21 0 0 0 8.54 3.61 12.65 12.65 0 0 0 6.14-1.53z" fill="#ffffff" data-color="1"></path>
        </g>
    </g>
</svg>