<?xml version="1.0" standalone="no"?>
<!DOCTYPE svg PUBLIC "-//W3C//DTD SVG 20010904//EN"
 "http://www.w3.org/TR/2001/REC-SVG-20010904/DTD/svg10.dtd">
<svg version="1.0" xmlns="http://www.w3.org/2000/svg"
 width="1468.000000pt" height="808.000000pt" viewBox="0 0 1468.000000 808.000000"
 preserveAspectRatio="xMidYMid meet">

<g transform="translate(0.000000,808.000000) scale(0.100000,-0.100000)"
fill="#000000" stroke="none">
<path d="M360 6205 l0 -1375 1375 0 1375 0 0 -2165 0 -2165 1380 0 1380 0 0
3540 0 3540 -2755 0 -2755 0 0 -1375z"/>
<path d="M8009 7565 c-201 -28 -419 -104 -589 -206 -321 -193 -576 -511 -690
-858 -54 -168 -74 -296 -74 -491 0 -279 47 -476 170 -720 392 -772 1342 -1079
2114 -684 154 78 268 162 395 289 270 270 423 598 457 981 31 356 -60 705
-263 1010 -331 494 -926 760 -1520 679z"/>
<path d="M9702 4048 c-810 -1943 -1472 -3536 -1472 -3541 0 -4 707 -6 1572 -5
l1572 3 1473 3535 c810 1944 1473 3536 1473 3538 0 1 -708 2 -1573 2 l-1574 0
-1471 -3532z"/>
</g>
</svg>
